# xmcd CD database file
#
# Track frame offsets:
#	150
#	16030
#	34902
#	48090
#	68799
#	86188
#	101495
#	117999
#	134029
#	147185
#
# Disc length: 2138 seconds
#
# Revision: 0
# Processed by: cddbd v1.5.1PL0 Copyright (c) Steve Scherf et al.
# Submitted via: CDex 1.50beta10
#
DISCID=8708580a
DTITLE=Chunky Nelms - A Father And His Son
DYEAR=2005
DGENRE=Country
TTITLE0=Let's Go
TTITLE1=I Can't Choose Him
TTITLE2=Maker Of You And Me
TTITLE3=Cadye's Song
TTITLE4=A Father And His Son
TTITLE5=Eternal Life
TTITLE6=Peace Of Heart
TTITLE7=A Servant's Heart
TTITLE8=Covenant
TTITLE9=Been There, Done That
EXTD=YEAR: 2005
EXTT0=
EXTT1=
EXTT2=
EXTT3=
EXTT4=
EXTT5=
EXTT6=
EXTT7=
EXTT8=
EXTT9=
PLAYORDER=
